<svg xmlns="http://www.w3.org/2000/svg" version="1.1" xmlns:xlink="http://www.w3.org/1999/xlink" viewBox="0 0 200 200"><rect width="200" height="200" fill="url('#gradient')"></rect><defs><linearGradient id="gradient" gradientTransform="rotate(0 0.5 0.5)"><stop offset="0%" stop-color="#ffffff"></stop><stop offset="100%" stop-color="#ffffff"></stop></linearGradient></defs><g><g fill="#2a9ef2" transform="matrix(1.3521721906774067,0,0,1.3521721906774067,-0.9097566300255338,107.00491578182582)" stroke="#2a9ef2" stroke-width="0.35"><path d="M9.17-4.81L12.58-4.81Q12.51-3.33 11.78-2.19Q11.04-1.05 9.72-0.43Q8.40 0.20 6.70 0.20L6.70 0.20Q3.90 0.20 2.29-1.63Q0.67-3.46 0.67-6.79L0.67-6.79L0.67-7.49Q0.67-9.58 1.40-11.15Q2.13-12.71 3.50-13.57Q4.86-14.42 6.66-14.42L6.66-14.42Q9.25-14.42 10.82-13.06Q12.39-11.70 12.61-9.31L12.61-9.31L9.19-9.31Q9.15-10.61 8.54-11.17Q7.92-11.74 6.66-11.74L6.66-11.74Q5.38-11.74 4.79-10.78Q4.19-9.82 4.16-7.72L4.16-7.72L4.16-6.72Q4.16-4.44 4.73-3.47Q5.30-2.49 6.70-2.49L6.70-2.49Q7.88-2.49 8.51-3.05Q9.13-3.60 9.17-4.81L9.17-4.81ZM23.29 0L20 0Q19.82-0.32 19.69-0.95L19.69-0.95Q18.78 0.20 17.15 0.20L17.15 0.20Q15.65 0.20 14.61-0.71Q13.56-1.61 13.56-2.98L13.56-2.98Q13.56-4.70 14.83-5.58Q16.10-6.46 18.53-6.46L18.53-6.46L19.54-6.46L19.54-7.01Q19.54-8.47 18.28-8.47L18.28-8.47Q17.11-8.47 17.11-7.31L17.11-7.31L13.82-7.31Q13.82-8.85 15.12-9.80Q16.43-10.76 18.45-10.76Q20.47-10.76 21.64-9.78Q22.81-8.79 22.84-7.07L22.84-7.07L22.84-2.39Q22.86-0.94 23.29-0.17L23.29-0.17L23.29 0ZM17.94-2.15L17.94-2.15Q18.55-2.15 18.96-2.41Q19.37-2.68 19.54-3.01L19.54-3.01L19.54-4.70L18.58-4.70Q16.87-4.70 16.87-3.15L16.87-3.15Q16.87-2.71 17.17-2.43Q17.47-2.15 17.94-2.15ZM24.69-10.57L27.77-10.57L27.88-9.33Q29.00-10.76 30.90-10.76L30.90-10.76Q32.90-10.76 33.60-9.17L33.60-9.17Q34.68-10.76 36.71-10.76L36.71-10.76Q39.92-10.76 40.01-6.88L40.01-6.88L40.01 0L36.71 0L36.71-6.67Q36.71-7.48 36.44-7.85Q36.16-8.22 35.44-8.22L35.44-8.22Q34.46-8.22 33.98-7.35L33.98-7.35L33.99-7.22L33.99 0L30.69 0L30.69-6.65Q30.69-7.48 30.43-7.85Q30.17-8.22 29.42-8.22L29.42-8.22Q28.48-8.22 27.98-7.35L27.98-7.35L27.98 0L24.69 0L24.69-10.57ZM51.70-5.36L51.70-5.21Q51.70-2.74 50.59-1.27Q49.48 0.20 47.60 0.20L47.60 0.20Q46.14 0.20 45.21-0.87L45.21-0.87L45.21 4.06L41.91 4.06L41.91-10.57L44.99-10.57L45.09-9.59Q46.04-10.76 47.58-10.76L47.58-10.76Q49.53-10.76 50.62-9.32Q51.70-7.88 51.70-5.36L51.70-5.36ZM48.41-5.06L48.41-5.41Q48.41-8.22 46.77-8.22L46.77-8.22Q45.60-8.22 45.21-7.38L45.21-7.38L45.21-3.22Q45.63-2.34 46.79-2.34L46.79-2.34Q48.36-2.34 48.41-5.06L48.41-5.06ZM59.54 0L59.44-1.14Q58.40 0.20 56.62 0.20L56.62 0.20Q54.88 0.20 53.99-0.82Q53.10-1.83 53.10-3.72L53.10-3.72L53.10-10.57L56.39-10.57L56.39-3.70Q56.39-2.34 57.71-2.34L57.71-2.34Q58.84-2.34 59.32-3.15L59.32-3.15L59.32-10.57L62.63-10.57L62.63 0L59.54 0ZM69.96-2.97L69.96-2.97Q69.96-3.39 69.52-3.64Q69.08-3.90 67.85-4.17Q66.62-4.44 65.82-4.89Q65.02-5.33 64.60-5.97Q64.18-6.60 64.18-7.42L64.18-7.42Q64.18-8.88 65.38-9.82Q66.58-10.76 68.53-10.76L68.53-10.76Q70.62-10.76 71.88-9.81Q73.15-8.87 73.15-7.32L73.15-7.32L69.85-7.32Q69.85-8.59 68.52-8.59L68.52-8.59Q68.00-8.59 67.65-8.31Q67.29-8.02 67.29-7.59L67.29-7.59Q67.29-7.15 67.72-6.88Q68.15-6.60 69.10-6.43Q70.04-6.25 70.75-6.01L70.75-6.01Q73.13-5.19 73.13-3.07L73.13-3.07Q73.13-1.62 71.85-0.71Q70.57 0.20 68.53 0.20L68.53 0.20Q67.17 0.20 66.10-0.29Q65.04-0.78 64.44-1.62Q63.85-2.46 63.85-3.39L63.85-3.39L66.92-3.39Q66.94-2.66 67.41-2.32Q67.88-1.98 68.61-1.98L68.61-1.98Q69.29-1.98 69.62-2.26Q69.96-2.53 69.96-2.97ZM82.92-4.81L86.33-4.81Q86.26-3.33 85.53-2.19Q84.79-1.05 83.47-0.43Q82.15 0.20 80.45 0.20L80.45 0.20Q77.65 0.20 76.04-1.63Q74.42-3.46 74.42-6.79L74.42-6.79L74.42-7.49Q74.42-9.58 75.15-11.15Q75.88-12.71 77.25-13.57Q78.61-14.42 80.41-14.42L80.41-14.42Q83.00-14.42 84.57-13.06Q86.14-11.70 86.36-9.31L86.36-9.31L82.94-9.31Q82.90-10.61 82.29-11.17Q81.67-11.74 80.41-11.74L80.41-11.74Q79.13-11.74 78.54-10.78Q77.94-9.82 77.91-7.72L77.91-7.72L77.91-6.72Q77.91-4.44 78.48-3.47Q79.05-2.49 80.45-2.49L80.45-2.49Q81.63-2.49 82.26-3.05Q82.88-3.60 82.92-4.81L82.92-4.81ZM87.39-4.82L87.38-5.38Q87.38-6.96 88.00-8.20Q88.61-9.43 89.77-10.10Q90.92-10.76 92.47-10.76L92.47-10.76Q94.84-10.76 96.21-9.29Q97.58-7.82 97.58-5.29L97.58-5.29L97.58-5.18Q97.58-2.71 96.21-1.25Q94.83 0.20 92.49 0.20L92.49 0.20Q90.23 0.20 88.87-1.16Q87.50-2.51 87.39-4.82L87.39-4.82ZM90.68-5.77L90.67-5.18Q90.67-3.71 91.13-3.03Q91.59-2.34 92.49-2.34L92.49-2.34Q94.25-2.34 94.29-5.05L94.29-5.05L94.29-5.38Q94.29-8.22 92.47-8.22L92.47-8.22Q90.82-8.22 90.68-5.77L90.68-5.77ZM98.96-10.57L102.05-10.57L102.16-9.33Q103.25-10.76 105.18-10.76L105.18-10.76Q106.83-10.76 107.64-9.78Q108.46-8.79 108.49-6.81L108.49-6.81L108.49 0L105.19 0L105.19-6.67Q105.19-7.47 104.86-7.85Q104.54-8.22 103.69-8.22L103.69-8.22Q102.72-8.22 102.26-7.46L102.26-7.46L102.26 0L98.96 0L98.96-10.57ZM110.24-10.57L113.33-10.57L113.44-9.33Q114.53-10.76 116.46-10.76L116.46-10.76Q118.11-10.76 118.92-9.78Q119.74-8.79 119.77-6.81L119.77-6.81L119.77 0L116.46 0L116.46-6.67Q116.46-7.47 116.14-7.85Q115.82-8.22 114.97-8.22L114.97-8.22Q114.00-8.22 113.54-7.46L113.54-7.46L113.54 0L110.24 0L110.24-10.57ZM126.70 0.20L126.70 0.20Q124.27 0.20 122.76-1.25Q121.26-2.71 121.26-5.03L121.26-5.03L121.26-5.30Q121.26-6.92 121.86-8.16Q122.46-9.40 123.61-10.08Q124.77-10.76 126.35-10.76L126.35-10.76Q128.57-10.76 129.86-9.38Q131.15-8.00 131.15-5.53L131.15-5.53L131.15-4.25L124.61-4.25Q124.79-3.36 125.38-2.85Q125.98-2.34 126.92-2.34L126.92-2.34Q128.49-2.34 129.37-3.44L129.37-3.44L130.87-1.66Q130.25-0.81 129.13-0.31Q128.00 0.20 126.70 0.20ZM126.33-8.22L126.33-8.22Q124.88-8.22 124.61-6.31L124.61-6.31L127.93-6.31L127.93-6.56Q127.95-7.35 127.53-7.79Q127.11-8.22 126.33-8.22ZM136.94-2.34L136.94-2.34Q137.64-2.34 138.02-2.72Q138.40-3.10 138.39-3.77L138.39-3.77L141.47-3.77Q141.47-2.03 140.23-0.92Q138.98 0.20 137.02 0.20L137.02 0.20Q134.72 0.20 133.39-1.25Q132.06-2.70 132.06-5.25L132.06-5.25L132.06-5.39Q132.06-6.99 132.65-8.22Q133.24-9.44 134.36-10.10Q135.47-10.76 136.99-10.76L136.99-10.76Q139.05-10.76 140.26-9.62Q141.47-8.48 141.47-6.52L141.47-6.52L138.39-6.52Q138.39-7.34 137.99-7.78Q137.59-8.22 136.91-8.22L136.91-8.22Q135.63-8.22 135.42-6.59L135.42-6.59Q135.35-6.07 135.35-5.17L135.35-5.17Q135.35-3.57 135.73-2.96Q136.11-2.34 136.94-2.34ZM143.41-13.19L146.70-13.19L146.70-10.57L148.44-10.57L148.44-8.28L146.70-8.28L146.70-3.45Q146.70-2.85 146.91-2.62Q147.13-2.38 147.76-2.38L147.76-2.38Q148.25-2.38 148.58-2.44L148.58-2.44L148.58-0.09Q147.70 0.20 146.73 0.20L146.73 0.20Q145.03 0.20 144.22-0.61Q143.41-1.41 143.41-3.04L143.41-3.04L143.41-8.28L142.06-8.28L142.06-10.57L143.41-10.57L143.41-13.19Z"></path></g></g></svg>